<svg width="289" height="56" viewBox="0 0 289 56" fill="none" xmlns="http://www.w3.org/2000/svg">
<path d="M30.4718 24.4293C29.7869 25.7446 28.9552 26.9433 27.9729 28.029C26.9906 29.1148 25.8898 30.0463 24.6705 30.8253C23.4492 31.6043 22.1189 32.2084 20.6756 32.6355C19.2323 33.0645 17.7363 33.2772 16.1895 33.2772C13.9578 33.2772 11.8597 32.8425 9.89517 31.9713C7.93065 31.1 6.22017 29.9164 4.76183 28.4186C3.3035 26.9207 2.15 25.1632 1.30134 23.146C0.452685 21.1288 0.0292969 18.9742 0.0292969 16.6823C0.0292969 14.3903 0.452685 12.2809 1.30134 10.2637C2.15 8.24648 3.30161 6.48143 4.76183 4.96852C6.21829 3.45562 7.93065 2.26449 9.89517 1.39325C11.8578 0.520127 13.9559 0.0854492 16.1877 0.0854492C17.7062 0.0854492 19.1645 0.290557 20.5627 0.704536C21.9627 1.11663 23.2629 1.69809 24.4691 2.44701C25.6753 3.19594 26.7611 4.08976 27.7283 5.12847C28.6955 6.16718 29.5215 7.31315 30.2065 8.56638C29.5215 8.93331 28.9702 9.23063 28.5543 9.4602C28.1366 9.68977 27.7358 9.90428 27.3482 10.1019C26.9605 10.3013 26.5296 10.5234 26.0535 10.7661C25.5775 11.0107 24.9678 11.3156 24.2245 11.6825C23.4511 10.2769 22.3503 9.13842 20.9221 8.26718C19.4938 7.39595 17.917 6.96127 16.1895 6.96127C14.8799 6.96127 13.653 7.22094 12.507 7.7403C11.361 8.26154 10.3562 8.95589 9.49437 9.82713C8.63066 10.6984 7.95512 11.7296 7.46399 12.9207C6.97286 14.1118 6.72635 15.3669 6.72635 16.6804C6.72635 17.9938 6.97097 19.2866 7.46399 20.4626C7.95512 21.6387 8.63066 22.6718 9.49437 23.5581C10.3581 24.4444 11.3629 25.1387 12.507 25.643C13.653 26.1473 14.8799 26.3995 16.1895 26.3995C17.9753 26.3995 19.6049 25.9347 21.0764 25.0014C22.5498 24.0699 23.6882 22.8393 24.4917 21.3113C25.235 21.7083 25.8371 22.0301 26.3 22.2747C26.7611 22.5194 27.1844 22.7489 27.5721 22.9634C27.9597 23.178 28.3605 23.3925 28.7783 23.6051C29.1941 23.8196 29.7605 24.0944 30.4737 24.4293H30.4718Z" fill="white"/>
<path d="M207.802 24.4294C207.117 25.7447 206.285 26.9434 205.303 28.0291C204.321 29.1149 203.22 30.0463 202.001 30.8254C200.779 31.6044 199.449 32.2084 198.006 32.6356C196.562 33.0646 195.066 33.2772 193.52 33.2772C191.288 33.2772 189.19 32.8426 187.225 31.9713C185.261 31.1001 183.55 29.9165 182.092 28.4186C180.634 26.9208 179.48 25.1632 178.631 23.146C177.783 21.1288 177.359 18.9743 177.359 16.6823C177.359 14.3904 177.783 12.281 178.631 10.2638C179.48 8.24656 180.632 6.4815 182.092 4.96859C183.548 3.45569 185.261 2.26456 187.225 1.39332C189.19 0.52208 191.286 0.0874023 193.52 0.0874023C195.038 0.0874023 196.497 0.29251 197.895 0.706489C199.295 1.11859 200.595 1.70004 201.801 2.44897C203.007 3.19789 204.093 4.09171 205.06 5.13042C206.027 6.16913 206.854 7.3151 207.538 8.56833C206.854 8.93527 206.302 9.23258 205.886 9.46215C205.469 9.69172 205.068 9.90624 204.68 10.1038C204.292 10.3033 203.862 10.5253 203.385 10.7681C202.909 11.0127 202.3 11.3175 201.556 11.6845C200.783 10.2788 199.682 9.14038 198.254 8.26914C196.826 7.3979 195.249 6.96322 193.522 6.96322C192.212 6.96322 190.985 7.2229 189.839 7.74225C188.693 8.26349 187.688 8.95785 186.826 9.82909C185.963 10.7003 185.287 11.7315 184.796 12.9226C184.305 14.1138 184.058 15.3689 184.058 16.6823C184.058 17.9958 184.303 19.2885 184.796 20.4646C185.287 21.6407 185.963 22.6737 186.826 23.56C187.69 24.4463 188.695 25.1407 189.839 25.645C190.985 26.1493 192.212 26.4014 193.522 26.4014C195.307 26.4014 196.937 25.9366 198.408 25.0033C199.882 24.0719 201.02 22.8412 201.824 21.3132C202.567 21.7103 203.169 22.0321 203.632 22.2767C204.093 22.5213 204.516 22.7509 204.904 22.9654C205.292 23.1799 205.692 23.3944 206.11 23.6071C206.526 23.8216 207.092 24.0963 207.806 24.4313L207.802 24.4294Z" fill="#FF4E1F"/>
<path d="M64.1975 16.7049C64.1975 19.01 63.7666 21.1665 62.9066 23.1724C62.0467 25.1783 60.8876 26.9302 59.4311 28.428C57.9728 29.9259 56.2604 31.1076 54.2921 31.977C52.3238 32.8463 50.2314 33.2791 48.0166 33.2791C45.8018 33.2791 43.6717 32.8463 41.7184 31.977C39.7652 31.1076 38.0604 29.9259 36.602 28.428C35.1437 26.9321 33.9921 25.1802 33.1472 23.1724C32.3023 21.1665 31.8789 19.0119 31.8789 16.7049C31.8789 14.3979 32.3023 12.2358 33.1472 10.2148C33.9921 8.19387 35.1437 6.43446 36.602 4.93849C38.0585 3.44252 39.7652 2.25891 41.7184 1.38955C43.6717 0.52208 45.7698 0.0874023 48.0166 0.0874023C50.2633 0.0874023 52.3238 0.52208 54.2921 1.38955C56.2604 2.25891 57.9728 3.44063 59.4311 4.93849C60.8876 6.43634 62.0486 8.19387 62.9066 10.2148C63.7666 12.2358 64.1975 14.3998 64.1975 16.7049ZM48.0166 6.86913C46.705 6.86913 45.4725 7.13258 44.3209 7.65569C43.1693 8.1807 42.1625 8.89011 41.3045 9.78957C40.4445 10.689 39.7577 11.7296 39.2496 12.9113C38.7397 14.095 38.4838 15.3595 38.4838 16.7068C38.4838 18.0541 38.7397 19.3186 39.2496 20.5022C39.7596 21.6858 40.4445 22.7189 41.3045 23.6014C42.1644 24.4839 43.1693 25.1896 44.3209 25.7127C45.4725 26.2377 46.705 26.4993 48.0166 26.4993C49.3281 26.4993 50.5531 26.2377 51.6897 25.7127C52.8263 25.1896 53.8254 24.4858 54.6854 23.6014C55.5453 22.7189 56.2228 21.6858 56.7195 20.5022C57.2144 19.3205 57.4628 18.0541 57.4628 16.7068C57.4628 15.3595 57.2144 14.095 56.7195 12.9113C56.2228 11.7296 55.5453 10.689 54.6854 9.78957C53.8254 8.89199 52.8263 8.1807 51.6897 7.65569C50.5531 7.13258 49.3281 6.86913 48.0166 6.86913Z" fill="white"/>
<path d="M74.5259 27.0449V33.1567H67.6934V0.0854492H91.1114V6.17847H74.5259V13.6113H89.1789V20.028H74.5259V27.0449Z" fill="white"/>
<path d="M245.342 27.0919H261.928V33.185H238.51V0.0854492H245.342V27.0919Z" fill="#FF4E1F"/>
<path d="M271.844 27.0919H288.43V33.185H265.012V0.0854492H271.844V27.0919Z" fill="#FF4E1F"/>
<path d="M101.772 27.0449V33.1567H94.9395V0.0854492H118.358V6.17847H101.772V13.6113H116.425V20.028H101.772V27.0449Z" fill="white"/>
<path d="M129.02 27.0449H147.134V33.1379L122.188 33.1567V0.0854492H145.606V6.17847H129.02V13.6113H143.673V20.028H129.02V27.0449Z" fill="white"/>
<path d="M217.395 27.0449H235.509V33.1379H210.562V0.0854492H233.981V6.17847H217.395V13.6113H232.048V20.028H217.395V27.0449Z" fill="#FF4E1F"/>
<path d="M157.551 27.0449H175.665V33.1379H150.719V0.0854492H174.137V6.17847H157.551V13.6113H172.204V20.028H157.551V27.0449Z" fill="white"/>
<path d="M12.2377 55.2849L10.1565 52.3231C9.89875 52.3419 9.6974 52.3513 9.55063 52.3513H7.16648V55.2868H5.78906V45.6411H9.55063C10.8001 45.6411 11.7824 45.9403 12.4993 46.5368C13.2162 47.1333 13.5738 47.9556 13.5738 49.0038C13.5738 49.747 13.3893 50.3812 13.0224 50.9062C12.6555 51.4293 12.1305 51.8113 11.4512 52.0503L13.7393 55.2887H12.2377V55.2849ZM11.5076 50.6126C11.9668 50.2363 12.1963 49.6981 12.1963 49C12.1963 48.3019 11.9668 47.7675 11.5076 47.3949C11.0485 47.0223 10.3823 46.836 9.50923 46.836H7.16648V51.1771H9.50923C10.3823 51.1771 11.0485 50.989 11.5076 50.6126Z" fill="white"/>
<path d="M30.7246 54.0862V55.2849H23.7246V45.6392H30.5327V46.8378H25.1039V49.7997H29.9399V50.9701H25.1039V54.0843H30.7265L30.7246 54.0862Z" fill="white"/>
<path d="M49.5877 45.6392L45.3575 55.2849H43.9933L39.75 45.6392H41.2384L44.7102 53.5631L48.2102 45.6392H49.5877Z" fill="white"/>
<path d="M66.0156 54.0862V55.2849H59.0156V45.6392H65.8237V46.8378H60.3949V49.7997H65.231V50.9701H60.3949V54.0843H66.0175L66.0156 54.0862Z" fill="white"/>
<path d="M82.7524 52.8725H77.6266L76.5653 55.2849H75.1465L79.514 45.6392H80.8782L85.2607 55.2849H83.8137L82.7524 52.8725ZM82.2707 51.7698L80.1895 47.0429L78.1083 51.7698H82.2707Z" fill="white"/>
<path d="M94.6894 45.6392H96.0668V54.0862H101.289V55.2849H94.6875V45.6392H94.6894Z" fill="white"/>
<path d="M110.785 45.6392H112.163V55.2849H110.785V45.6392Z" fill="white"/>
<path d="M131.175 45.6392V55.2849H130.046L124.258 48.091V55.2849H122.881V45.6392H124.01L129.798 52.833V45.6392H131.175Z" fill="white"/>
<path d="M148.705 50.4052H150.028V54.1668C149.55 54.5619 148.995 54.8649 148.361 55.0756C147.726 55.2864 147.066 55.3918 146.377 55.3918C145.402 55.3918 144.526 55.1791 143.745 54.7501C142.964 54.3229 142.35 53.7358 141.904 52.9869C141.458 52.238 141.236 51.395 141.236 50.4579C141.236 49.5208 141.458 48.6759 141.904 47.9232C142.35 47.1705 142.966 46.5815 143.75 46.16C144.535 45.7385 145.419 45.5259 146.404 45.5259C147.175 45.5259 147.875 45.652 148.505 45.9041C149.134 46.1563 149.67 46.527 150.111 47.0143L149.256 47.8686C148.485 47.1253 147.551 46.7528 146.458 46.7528C145.722 46.7528 145.064 46.9108 144.48 47.2288C143.897 47.545 143.44 47.9872 143.109 48.5517C142.777 49.1162 142.612 49.7522 142.612 50.4598C142.612 51.1673 142.777 51.7901 143.109 52.3547C143.44 52.9192 143.897 53.3633 144.48 53.685C145.064 54.0068 145.719 54.1668 146.445 54.1668C147.309 54.1668 148.061 53.9598 148.705 53.5477V50.4052Z" fill="white"/>
<path d="M174.927 46.8378H171.619V45.6392H179.598V46.8378H176.29V55.2849H174.925V46.8378H174.927Z" fill="white"/>
<path d="M194.19 52.8725H189.064L188.003 55.2849H186.584L190.951 45.6392H192.316L196.698 55.2849H195.251L194.19 52.8725ZM193.708 51.7698L191.627 47.0429L189.546 51.7698H193.708Z" fill="white"/>
<path d="M206.125 45.6392H207.502V54.0862H212.724V55.2849H206.123V45.6392H206.125Z" fill="white"/>
<path d="M229.221 54.0862V55.2849H222.221V45.6392H229.029V46.8378H223.6V49.7997H228.436V50.9701H223.6V54.0843H229.223L229.221 54.0862Z" fill="white"/>
<path d="M247.431 45.6392V55.2849H246.302L240.514 48.091V55.2849H239.137V45.6392H240.266L246.054 52.833V45.6392H247.431Z" fill="white"/>
<path d="M260.189 46.8378H256.881V45.6392H264.859V46.8378H261.551V55.2849H260.187V46.8378H260.189Z" fill="white"/>
<path d="M275.203 55.0569C274.528 54.8311 273.997 54.5394 273.611 54.1819L274.121 53.1074C274.488 53.4386 274.959 53.7077 275.534 53.9128C276.108 54.1198 276.699 54.2233 277.305 54.2233C278.105 54.2233 278.701 54.0878 279.097 53.8168C279.492 53.5459 279.689 53.1846 279.689 52.7348C279.689 52.4037 279.582 52.1346 279.366 51.9295C279.149 51.7225 278.884 51.5644 278.566 51.4534C278.25 51.3424 277.802 51.2182 277.222 51.0808C276.496 50.9058 275.911 50.7327 275.465 50.5577C275.019 50.3827 274.639 50.1155 274.321 49.7523C274.005 49.3891 273.845 48.8999 273.845 48.2846C273.845 47.7708 273.98 47.3061 274.251 46.8921C274.522 46.4781 274.932 46.1469 275.484 45.9004C276.035 45.652 276.72 45.5278 277.537 45.5278C278.107 45.5278 278.666 45.6012 279.217 45.748C279.768 45.8948 280.241 46.1055 280.636 46.3821L280.18 47.4848C279.776 47.227 279.345 47.0332 278.886 46.8996C278.427 46.766 277.977 46.7001 277.535 46.7001C276.754 46.7001 276.169 46.8432 275.777 47.1273C275.386 47.4114 275.192 47.7803 275.192 48.23C275.192 48.5612 275.303 48.8284 275.523 49.0354C275.743 49.2424 276.016 49.4023 276.344 49.5171C276.669 49.6319 277.113 49.7542 277.674 49.8821C278.4 50.0571 278.984 50.2321 279.424 50.4053C279.864 50.5803 280.244 50.8456 280.561 51.205C280.877 51.5644 281.037 52.0461 281.037 52.652C281.037 53.1582 280.899 53.6192 280.623 54.037C280.348 54.4547 279.928 54.7859 279.369 55.0287C278.809 55.2714 278.12 55.3937 277.303 55.3937C276.577 55.3937 275.877 55.2808 275.201 55.0569H275.203Z" fill="white"/>
</svg>
