<svg width="396" height="31" viewBox="0 0 396 31" fill="none" xmlns="http://www.w3.org/2000/svg">
<path d="M7.72375 23.3L7.28375 14.42L19.3238 1.5H28.0438L16.0438 14.5L11.6438 19.1L7.72375 23.3ZM0.64375 29.5V1.5H8.48375V29.5H0.64375ZM19.4438 29.5L10.3238 17.94L15.4838 12.42L28.6438 29.5H19.4438ZM43.8263 30.06C41.5863 30.06 39.5196 29.7 37.6263 28.98C35.7329 28.26 34.0796 27.2467 32.6663 25.94C31.2796 24.6067 30.1996 23.06 29.4263 21.3C28.6529 19.54 28.2663 17.6067 28.2663 15.5C28.2663 13.3933 28.6529 11.46 29.4263 9.7C30.1996 7.94 31.2796 6.40667 32.6663 5.1C34.0796 3.76667 35.7329 2.74 37.6263 2.02C39.5196 1.3 41.5863 0.939998 43.8263 0.939998C46.0929 0.939998 48.1596 1.3 50.0263 2.02C51.9196 2.74 53.5596 3.76667 54.9463 5.1C56.3329 6.40667 57.4129 7.94 58.1863 9.7C58.9863 11.46 59.3863 13.3933 59.3863 15.5C59.3863 17.6067 58.9863 19.5533 58.1863 21.34C57.4129 23.1 56.3329 24.6333 54.9463 25.94C53.5596 27.2467 51.9196 28.26 50.0263 28.98C48.1596 29.7 46.0929 30.06 43.8263 30.06ZM43.8263 23.5C44.8929 23.5 45.8796 23.3133 46.7863 22.94C47.7196 22.5667 48.5196 22.0333 49.1863 21.34C49.8796 20.62 50.4129 19.7667 50.7863 18.78C51.1863 17.7933 51.3863 16.7 51.3863 15.5C51.3863 14.2733 51.1863 13.18 50.7863 12.22C50.4129 11.2333 49.8796 10.3933 49.1863 9.7C48.5196 8.98 47.7196 8.43333 46.7863 8.06C45.8796 7.68667 44.8929 7.5 43.8263 7.5C42.7596 7.5 41.7596 7.68667 40.8263 8.06C39.9196 8.43333 39.1196 8.98 38.4263 9.7C37.7596 10.3933 37.2263 11.2333 36.8263 12.22C36.4529 13.18 36.2663 14.2733 36.2663 15.5C36.2663 16.7 36.4529 17.7933 36.8263 18.78C37.2263 19.7667 37.7596 20.62 38.4263 21.34C39.1196 22.0333 39.9196 22.5667 40.8263 22.94C41.7596 23.3133 42.7596 23.5 43.8263 23.5ZM63.5344 29.5V1.5H71.4544V23.22H84.8144V29.5H63.5344ZM84.8619 29.5L97.2219 1.5H105.022L117.422 29.5H109.182L99.5019 5.38H102.622L92.9419 29.5H84.8619ZM91.6219 24.06L93.6619 18.22H107.342L109.382 24.06H91.6219ZM119.667 29.5V1.5H126.187L137.787 20.54H134.347L145.627 1.5H152.147L152.227 29.5H144.947L144.867 12.58H146.107L137.667 26.74H134.147L125.467 12.58H126.987V29.5H119.667ZM157.831 29.5V1.5H172.151C175.831 1.5 178.578 2.18 180.391 3.54C182.205 4.87333 183.111 6.63333 183.111 8.82C183.111 10.26 182.725 11.5267 181.951 12.62C181.205 13.6867 180.138 14.54 178.751 15.18C177.391 15.7933 175.765 16.1 173.871 16.1L174.671 14.18C176.645 14.18 178.365 14.4867 179.831 15.1C181.298 15.6867 182.431 16.5533 183.231 17.7C184.058 18.82 184.471 20.1933 184.471 21.82C184.471 24.2467 183.485 26.14 181.511 27.5C179.565 28.8333 176.711 29.5 172.951 29.5H157.831ZM165.671 23.78H172.311C173.671 23.78 174.698 23.5533 175.391 23.1C176.111 22.62 176.471 21.9 176.471 20.94C176.471 19.98 176.111 19.2733 175.391 18.82C174.698 18.34 173.671 18.1 172.311 18.1H165.111V12.62H171.111C172.445 12.62 173.445 12.3933 174.111 11.94C174.778 11.4867 175.111 10.8067 175.111 9.9C175.111 8.99333 174.778 8.32667 174.111 7.9C173.445 7.44667 172.445 7.22 171.111 7.22H165.671V23.78ZM185.213 29.5L197.573 1.5H205.373L217.773 29.5H209.533L199.853 5.38H202.973L193.293 29.5H185.213ZM191.973 24.06L194.013 18.22H207.693L209.733 24.06H191.973ZM229.859 30.06C227.565 30.06 225.352 29.78 223.219 29.22C221.112 28.6333 219.392 27.8867 218.059 26.98L220.659 21.14C221.912 21.94 223.352 22.6067 224.979 23.14C226.632 23.6467 228.272 23.9 229.899 23.9C230.992 23.9 231.872 23.8067 232.539 23.62C233.205 23.4067 233.685 23.14 233.979 22.82C234.299 22.4733 234.459 22.0733 234.459 21.62C234.459 20.98 234.165 20.4733 233.579 20.1C232.992 19.7267 232.232 19.42 231.299 19.18C230.365 18.94 229.325 18.7 228.179 18.46C227.059 18.22 225.925 17.9133 224.779 17.54C223.659 17.1667 222.632 16.6867 221.699 16.1C220.765 15.4867 220.005 14.7 219.419 13.74C218.832 12.7533 218.539 11.5133 218.539 10.02C218.539 8.34 218.992 6.82 219.899 5.46C220.832 4.1 222.219 3.00667 224.059 2.18C225.899 1.35333 228.192 0.939998 230.939 0.939998C232.779 0.939998 234.579 1.15333 236.339 1.58C238.125 1.98 239.712 2.58 241.099 3.38L238.659 9.26C237.325 8.54 236.005 8.00667 234.699 7.66C233.392 7.28667 232.125 7.1 230.899 7.1C229.805 7.1 228.925 7.22 228.259 7.46C227.592 7.67333 227.112 7.96666 226.819 8.34C226.525 8.71333 226.379 9.14 226.379 9.62C226.379 10.2333 226.659 10.7267 227.219 11.1C227.805 11.4467 228.565 11.74 229.499 11.98C230.459 12.1933 231.499 12.42 232.619 12.66C233.765 12.9 234.899 13.2067 236.019 13.58C237.165 13.9267 238.205 14.4067 239.139 15.02C240.072 15.6067 240.819 16.3933 241.379 17.38C241.965 18.34 242.259 19.5533 242.259 21.02C242.259 22.6467 241.792 24.1533 240.859 25.54C239.952 26.9 238.579 27.9933 236.739 28.82C234.925 29.6467 232.632 30.06 229.859 30.06ZM255.757 30.06C253.464 30.06 251.251 29.78 249.117 29.22C247.011 28.6333 245.291 27.8867 243.957 26.98L246.557 21.14C247.811 21.94 249.251 22.6067 250.877 23.14C252.531 23.6467 254.171 23.9 255.797 23.9C256.891 23.9 257.771 23.8067 258.437 23.62C259.104 23.4067 259.584 23.14 259.877 22.82C260.197 22.4733 260.357 22.0733 260.357 21.62C260.357 20.98 260.064 20.4733 259.477 20.1C258.891 19.7267 258.131 19.42 257.197 19.18C256.264 18.94 255.224 18.7 254.077 18.46C252.957 18.22 251.824 17.9133 250.677 17.54C249.557 17.1667 248.531 16.6867 247.597 16.1C246.664 15.4867 245.904 14.7 245.317 13.74C244.731 12.7533 244.437 11.5133 244.437 10.02C244.437 8.34 244.891 6.82 245.797 5.46C246.731 4.1 248.117 3.00667 249.957 2.18C251.797 1.35333 254.091 0.939998 256.837 0.939998C258.677 0.939998 260.477 1.15333 262.237 1.58C264.024 1.98 265.611 2.58 266.997 3.38L264.557 9.26C263.224 8.54 261.904 8.00667 260.597 7.66C259.291 7.28667 258.024 7.1 256.797 7.1C255.704 7.1 254.824 7.22 254.157 7.46C253.491 7.67333 253.011 7.96666 252.717 8.34C252.424 8.71333 252.277 9.14 252.277 9.62C252.277 10.2333 252.557 10.7267 253.117 11.1C253.704 11.4467 254.464 11.74 255.397 11.98C256.357 12.1933 257.397 12.42 258.517 12.66C259.664 12.9 260.797 13.2067 261.917 13.58C263.064 13.9267 264.104 14.4067 265.037 15.02C265.971 15.6067 266.717 16.3933 267.277 17.38C267.864 18.34 268.157 19.5533 268.157 21.02C268.157 22.6467 267.691 24.1533 266.757 25.54C265.851 26.9 264.477 27.9933 262.637 28.82C260.824 29.6467 258.531 30.06 255.757 30.06ZM268.456 29.5L280.816 1.5H288.616L301.016 29.5H292.776L283.096 5.38H286.216L276.536 29.5H268.456ZM275.216 24.06L277.256 18.22H290.936L292.976 24.06H275.216ZM303.261 29.5V1.5H316.501C319.594 1.5 322.314 2.07333 324.661 3.22C327.008 4.36667 328.834 5.98 330.141 8.06C331.474 10.14 332.141 12.62 332.141 15.5C332.141 18.3533 331.474 20.8333 330.141 22.94C328.834 25.02 327.008 26.6333 324.661 27.78C322.314 28.9267 319.594 29.5 316.501 29.5H303.261ZM311.181 23.18H316.181C317.781 23.18 319.168 22.8867 320.341 22.3C321.541 21.6867 322.474 20.8067 323.141 19.66C323.808 18.4867 324.141 17.1 324.141 15.5C324.141 13.8733 323.808 12.4867 323.141 11.34C322.474 10.1933 321.541 9.32667 320.341 8.74C319.168 8.12666 317.781 7.82 316.181 7.82H311.181V23.18ZM350.428 30.06C348.188 30.06 346.121 29.7 344.228 28.98C342.334 28.26 340.681 27.2467 339.268 25.94C337.881 24.6067 336.801 23.06 336.028 21.3C335.254 19.54 334.868 17.6067 334.868 15.5C334.868 13.3933 335.254 11.46 336.028 9.7C336.801 7.94 337.881 6.40667 339.268 5.1C340.681 3.76667 342.334 2.74 344.228 2.02C346.121 1.3 348.188 0.939998 350.428 0.939998C352.694 0.939998 354.761 1.3 356.628 2.02C358.521 2.74 360.161 3.76667 361.548 5.1C362.934 6.40667 364.014 7.94 364.788 9.7C365.588 11.46 365.988 13.3933 365.988 15.5C365.988 17.6067 365.588 19.5533 364.788 21.34C364.014 23.1 362.934 24.6333 361.548 25.94C360.161 27.2467 358.521 28.26 356.628 28.98C354.761 29.7 352.694 30.06 350.428 30.06ZM350.428 23.5C351.494 23.5 352.481 23.3133 353.388 22.94C354.321 22.5667 355.121 22.0333 355.788 21.34C356.481 20.62 357.014 19.7667 357.388 18.78C357.788 17.7933 357.988 16.7 357.988 15.5C357.988 14.2733 357.788 13.18 357.388 12.22C357.014 11.2333 356.481 10.3933 355.788 9.7C355.121 8.98 354.321 8.43333 353.388 8.06C352.481 7.68667 351.494 7.5 350.428 7.5C349.361 7.5 348.361 7.68667 347.428 8.06C346.521 8.43333 345.721 8.98 345.028 9.7C344.361 10.3933 343.828 11.2333 343.428 12.22C343.054 13.18 342.868 14.2733 342.868 15.5C342.868 16.7 343.054 17.7933 343.428 18.78C343.828 19.7667 344.361 20.62 345.028 21.34C345.721 22.0333 346.521 22.5667 347.428 22.94C348.361 23.3133 349.361 23.5 350.428 23.5ZM370.136 29.5V1.5H382.936C385.496 1.5 387.696 1.91333 389.536 2.74C391.403 3.56667 392.843 4.76667 393.856 6.34C394.869 7.88667 395.376 9.72667 395.376 11.86C395.376 13.9667 394.869 15.7933 393.856 17.34C392.843 18.86 391.403 20.0333 389.536 20.86C387.696 21.66 385.496 22.06 382.936 22.06H374.536L378.056 18.74V29.5H370.136ZM387.456 29.5L380.496 19.3H388.936L395.936 29.5H387.456ZM378.056 19.58L374.536 15.94H382.456C384.109 15.94 385.336 15.58 386.136 14.86C386.963 14.14 387.376 13.14 387.376 11.86C387.376 10.5533 386.963 9.54 386.136 8.82C385.336 8.1 384.109 7.74 382.456 7.74H374.536L378.056 4.1V19.58Z" fill="#293B42"/>
</svg>
