<svg width="396" height="30" viewBox="0 0 396 30" fill="none" xmlns="http://www.w3.org/2000/svg">
<path d="M7.11047 23.0793L6.67047 14.1993L18.7105 1.27929H27.4305L15.4305 14.2793L11.0305 18.8793L7.11047 23.0793ZM0.0304688 29.2793V1.27929H7.87047V29.2793H0.0304688ZM18.8305 29.2793L9.71047 17.7193L14.8705 12.1993L28.0305 29.2793H18.8305ZM43.213 29.8393C40.973 29.8393 38.9063 29.4793 37.013 28.7593C35.1196 28.0393 33.4663 27.026 32.053 25.7193C30.6663 24.386 29.5863 22.8393 28.813 21.0793C28.0396 19.3193 27.653 17.386 27.653 15.2793C27.653 13.1726 28.0396 11.2393 28.813 9.4793C29.5863 7.7193 30.6663 6.18596 32.053 4.8793C33.4663 3.54596 35.1196 2.5193 37.013 1.7993C38.9063 1.0793 40.973 0.719295 43.213 0.719295C45.4796 0.719295 47.5463 1.0793 49.413 1.7993C51.3063 2.5193 52.9463 3.54596 54.333 4.8793C55.7196 6.18596 56.7996 7.7193 57.573 9.4793C58.373 11.2393 58.773 13.1726 58.773 15.2793C58.773 17.386 58.373 19.3326 57.573 21.1193C56.7996 22.8793 55.7196 24.4126 54.333 25.7193C52.9463 27.026 51.3063 28.0393 49.413 28.7593C47.5463 29.4793 45.4796 29.8393 43.213 29.8393ZM43.213 23.2793C44.2796 23.2793 45.2663 23.0926 46.173 22.7193C47.1063 22.346 47.9063 21.8126 48.573 21.1193C49.2663 20.3993 49.7996 19.546 50.173 18.5593C50.573 17.5726 50.773 16.4793 50.773 15.2793C50.773 14.0526 50.573 12.9593 50.173 11.9993C49.7996 11.0126 49.2663 10.1726 48.573 9.4793C47.9063 8.7593 47.1063 8.21263 46.173 7.8393C45.2663 7.46596 44.2796 7.2793 43.213 7.2793C42.1463 7.2793 41.1463 7.46596 40.213 7.8393C39.3063 8.21263 38.5063 8.7593 37.813 9.4793C37.1463 10.1726 36.613 11.0126 36.213 11.9993C35.8396 12.9593 35.653 14.0526 35.653 15.2793C35.653 16.4793 35.8396 17.5726 36.213 18.5593C36.613 19.546 37.1463 20.3993 37.813 21.1193C38.5063 21.8126 39.3063 22.346 40.213 22.7193C41.1463 23.0926 42.1463 23.2793 43.213 23.2793ZM62.9211 29.2793V1.27929H70.8411V22.9993H84.2011V29.2793H62.9211ZM84.2486 29.2793L96.6086 1.27929H104.409L116.809 29.2793H108.569L98.8886 5.1593H102.009L92.3286 29.2793H84.2486ZM91.0086 23.8393L93.0486 17.9993H106.729L108.769 23.8393H91.0086ZM119.054 29.2793V1.27929H125.574L137.174 20.3193H133.734L145.014 1.27929H151.534L151.614 29.2793H144.334L144.254 12.3593H145.494L137.054 26.5193H133.534L124.854 12.3593H126.374V29.2793H119.054ZM157.218 29.2793V1.27929H171.538C175.218 1.27929 177.965 1.95929 179.778 3.31929C181.591 4.65263 182.498 6.41263 182.498 8.5993C182.498 10.0393 182.111 11.306 181.338 12.3993C180.591 13.466 179.525 14.3193 178.138 14.9593C176.778 15.5726 175.151 15.8793 173.258 15.8793L174.058 13.9593C176.031 13.9593 177.751 14.266 179.218 14.8793C180.685 15.466 181.818 16.3326 182.618 17.4793C183.445 18.5993 183.858 19.9726 183.858 21.5993C183.858 24.026 182.871 25.9193 180.898 27.2793C178.951 28.6126 176.098 29.2793 172.338 29.2793H157.218ZM165.058 23.5593H171.698C173.058 23.5593 174.085 23.3326 174.778 22.8793C175.498 22.3993 175.858 21.6793 175.858 20.7193C175.858 19.7593 175.498 19.0526 174.778 18.5993C174.085 18.1193 173.058 17.8793 171.698 17.8793H164.498V12.3993H170.498C171.831 12.3993 172.831 12.1726 173.498 11.7193C174.165 11.266 174.498 10.586 174.498 9.6793C174.498 8.77263 174.165 8.10596 173.498 7.6793C172.831 7.22596 171.831 6.9993 170.498 6.9993H165.058V23.5593ZM184.6 29.2793L196.96 1.27929H204.76L217.16 29.2793H208.92L199.24 5.1593H202.36L192.68 29.2793H184.6ZM191.36 23.8393L193.4 17.9993H207.08L209.12 23.8393H191.36ZM229.245 29.8393C226.952 29.8393 224.739 29.5593 222.605 28.9993C220.499 28.4126 218.779 27.666 217.445 26.7593L220.045 20.9193C221.299 21.7193 222.739 22.386 224.365 22.9193C226.019 23.426 227.659 23.6793 229.285 23.6793C230.379 23.6793 231.259 23.586 231.925 23.3993C232.592 23.186 233.072 22.9193 233.365 22.5993C233.685 22.2526 233.845 21.8526 233.845 21.3993C233.845 20.7593 233.552 20.2526 232.965 19.8793C232.379 19.506 231.619 19.1993 230.685 18.9593C229.752 18.7193 228.712 18.4793 227.565 18.2393C226.445 17.9993 225.312 17.6926 224.165 17.3193C223.045 16.946 222.019 16.466 221.085 15.8793C220.152 15.266 219.392 14.4793 218.805 13.5193C218.219 12.5326 217.925 11.2926 217.925 9.7993C217.925 8.1193 218.379 6.5993 219.285 5.2393C220.219 3.8793 221.605 2.78596 223.445 1.9593C225.285 1.13263 227.579 0.719295 230.325 0.719295C232.165 0.719295 233.965 0.932629 235.725 1.3593C237.512 1.7593 239.099 2.3593 240.485 3.15929L238.045 9.0393C236.712 8.31929 235.392 7.78596 234.085 7.4393C232.779 7.06596 231.512 6.8793 230.285 6.8793C229.192 6.8793 228.312 6.9993 227.645 7.2393C226.979 7.45263 226.499 7.74596 226.205 8.1193C225.912 8.49263 225.765 8.9193 225.765 9.3993C225.765 10.0126 226.045 10.506 226.605 10.8793C227.192 11.226 227.952 11.5193 228.885 11.7593C229.845 11.9726 230.885 12.1993 232.005 12.4393C233.152 12.6793 234.285 12.986 235.405 13.3593C236.552 13.706 237.592 14.186 238.525 14.7993C239.459 15.386 240.205 16.1726 240.765 17.1593C241.352 18.1193 241.645 19.3326 241.645 20.7993C241.645 22.426 241.179 23.9326 240.245 25.3193C239.339 26.6793 237.965 27.7726 236.125 28.5993C234.312 29.426 232.019 29.8393 229.245 29.8393ZM255.144 29.8393C252.851 29.8393 250.637 29.5593 248.504 28.9993C246.397 28.4126 244.677 27.666 243.344 26.7593L245.944 20.9193C247.197 21.7193 248.637 22.386 250.264 22.9193C251.917 23.426 253.557 23.6793 255.184 23.6793C256.277 23.6793 257.157 23.586 257.824 23.3993C258.491 23.186 258.971 22.9193 259.264 22.5993C259.584 22.2526 259.744 21.8526 259.744 21.3993C259.744 20.7593 259.451 20.2526 258.864 19.8793C258.277 19.506 257.517 19.1993 256.584 18.9593C255.651 18.7193 254.611 18.4793 253.464 18.2393C252.344 17.9993 251.211 17.6926 250.064 17.3193C248.944 16.946 247.917 16.466 246.984 15.8793C246.051 15.266 245.291 14.4793 244.704 13.5193C244.117 12.5326 243.824 11.2926 243.824 9.7993C243.824 8.1193 244.277 6.5993 245.184 5.2393C246.117 3.8793 247.504 2.78596 249.344 1.9593C251.184 1.13263 253.477 0.719295 256.224 0.719295C258.064 0.719295 259.864 0.932629 261.624 1.3593C263.411 1.7593 264.997 2.3593 266.384 3.15929L263.944 9.0393C262.611 8.31929 261.291 7.78596 259.984 7.4393C258.677 7.06596 257.411 6.8793 256.184 6.8793C255.091 6.8793 254.211 6.9993 253.544 7.2393C252.877 7.45263 252.397 7.74596 252.104 8.1193C251.811 8.49263 251.664 8.9193 251.664 9.3993C251.664 10.0126 251.944 10.506 252.504 10.8793C253.091 11.226 253.851 11.5193 254.784 11.7593C255.744 11.9726 256.784 12.1993 257.904 12.4393C259.051 12.6793 260.184 12.986 261.304 13.3593C262.451 13.706 263.491 14.186 264.424 14.7993C265.357 15.386 266.104 16.1726 266.664 17.1593C267.251 18.1193 267.544 19.3326 267.544 20.7993C267.544 22.426 267.077 23.9326 266.144 25.3193C265.237 26.6793 263.864 27.7726 262.024 28.5993C260.211 29.426 257.917 29.8393 255.144 29.8393ZM267.842 29.2793L280.202 1.27929H288.002L300.402 29.2793H292.162L282.482 5.1593H285.602L275.922 29.2793H267.842ZM274.602 23.8393L276.642 17.9993H290.322L292.362 23.8393H274.602ZM302.648 29.2793V1.27929H315.888C318.981 1.27929 321.701 1.85263 324.048 2.9993C326.394 4.14596 328.221 5.7593 329.528 7.8393C330.861 9.9193 331.528 12.3993 331.528 15.2793C331.528 18.1326 330.861 20.6126 329.528 22.7193C328.221 24.7993 326.394 26.4126 324.048 27.5593C321.701 28.706 318.981 29.2793 315.888 29.2793H302.648ZM310.568 22.9593H315.568C317.168 22.9593 318.554 22.666 319.728 22.0793C320.928 21.466 321.861 20.586 322.528 19.4393C323.194 18.266 323.528 16.8793 323.528 15.2793C323.528 13.6526 323.194 12.266 322.528 11.1193C321.861 9.97263 320.928 9.10596 319.728 8.51929C318.554 7.90596 317.168 7.59929 315.568 7.59929H310.568V22.9593ZM349.815 29.8393C347.575 29.8393 345.508 29.4793 343.615 28.7593C341.721 28.0393 340.068 27.026 338.655 25.7193C337.268 24.386 336.188 22.8393 335.415 21.0793C334.641 19.3193 334.255 17.386 334.255 15.2793C334.255 13.1726 334.641 11.2393 335.415 9.4793C336.188 7.7193 337.268 6.18596 338.655 4.8793C340.068 3.54596 341.721 2.5193 343.615 1.7993C345.508 1.0793 347.575 0.719295 349.815 0.719295C352.081 0.719295 354.148 1.0793 356.015 1.7993C357.908 2.5193 359.548 3.54596 360.935 4.8793C362.321 6.18596 363.401 7.7193 364.175 9.4793C364.975 11.2393 365.375 13.1726 365.375 15.2793C365.375 17.386 364.975 19.3326 364.175 21.1193C363.401 22.8793 362.321 24.4126 360.935 25.7193C359.548 27.026 357.908 28.0393 356.015 28.7593C354.148 29.4793 352.081 29.8393 349.815 29.8393ZM349.815 23.2793C350.881 23.2793 351.868 23.0926 352.775 22.7193C353.708 22.346 354.508 21.8126 355.175 21.1193C355.868 20.3993 356.401 19.546 356.775 18.5593C357.175 17.5726 357.375 16.4793 357.375 15.2793C357.375 14.0526 357.175 12.9593 356.775 11.9993C356.401 11.0126 355.868 10.1726 355.175 9.4793C354.508 8.7593 353.708 8.21263 352.775 7.8393C351.868 7.46596 350.881 7.2793 349.815 7.2793C348.748 7.2793 347.748 7.46596 346.815 7.8393C345.908 8.21263 345.108 8.7593 344.415 9.4793C343.748 10.1726 343.215 11.0126 342.815 11.9993C342.441 12.9593 342.255 14.0526 342.255 15.2793C342.255 16.4793 342.441 17.5726 342.815 18.5593C343.215 19.546 343.748 20.3993 344.415 21.1193C345.108 21.8126 345.908 22.346 346.815 22.7193C347.748 23.0926 348.748 23.2793 349.815 23.2793ZM369.523 29.2793V1.27929H382.323C384.883 1.27929 387.083 1.69263 388.923 2.5193C390.789 3.34596 392.229 4.54596 393.243 6.11929C394.256 7.66596 394.763 9.50596 394.763 11.6393C394.763 13.746 394.256 15.5726 393.243 17.1193C392.229 18.6393 390.789 19.8126 388.923 20.6393C387.083 21.4393 384.883 21.8393 382.323 21.8393H373.923L377.443 18.5193V29.2793H369.523ZM386.843 29.2793L379.883 19.0793H388.323L395.323 29.2793H386.843ZM377.443 19.3593L373.923 15.7193H381.843C383.496 15.7193 384.723 15.3593 385.523 14.6393C386.349 13.9193 386.763 12.9193 386.763 11.6393C386.763 10.3326 386.349 9.3193 385.523 8.5993C384.723 7.8793 383.496 7.5193 381.843 7.5193H373.923L377.443 3.87929V19.3593Z" fill="white"/>
</svg>
